# xmcd
# 
# Track frame offsets:
#     150
#     26740
#     45987
#     68050
#     88695
#     114765
#     131135
#     151637
#     180725
#     199617
#     218115
#     238315
#     256550
# 
# Disc length: 3934
# 
# Revision: 16
# Processed by: cddbd v1.5.2PL0 Copyright (c) Steve Scherf et al.
# Submitted via: BonkEnc v1.0.15
# 
DISCID=a40f5c0d
DTITLE=Dio - Diamonds The Best Of Dio
DYEAR=0
DGENRE=Heavy Metal
TTITLE0=Holy Diver
TTITLE1=Rainbow In The Dark
TTITLE2=Don't Talk To Strangers
TTITLE3=We Rock
TTITLE4=The Last In Line
TTITLE5=Evil Eyes
TTITLE6=Rock'n Roll Children
TTITLE7=Sacred Heart
TTITLE8=Hungry For Heaven
TTITLE9=Hide In The Rainbow
TTITLE10=Dream Evil
TTITLE11=Wild One
TTITLE12=Lock Up The Wolves
EXTD=
EXTT0=
EXTT1=
EXTT2=
EXTT3=
EXTT4=
EXTT5=
EXTT6=
EXTT7=
EXTT8=
EXTT9=
EXTT10=
EXTT11=
EXTT12=
PLAYORDER=
